<svg width="100" height="100" viewBox="0 0 100 100" fill="none" xmlns="http://www.w3.org/2000/svg">
<path fill-rule="evenodd" clip-rule="evenodd" d="M23 16H69C72.5 16.5 79.5 19.5 79.5 27.5V74.5C79 77.5 76.2 83.6 69 84C62.3703 84.3683 39.4049 84.1997 26.1798 84.0405C24.0778 84.0152 21.6856 83.7673 20.6026 81.9656C19.8415 80.6994 19.823 78.9901 21.8624 76.9824C22.5555 76.3001 23.5274 76 24.5 76V67C23 66.8333 20 65.9 20 63.5V19C20.1667 18 21 16 23 16ZM32.5 67V76H66.7994C67.9021 76 69.01 75.669 69.7687 74.8688C72.507 71.9809 71.2434 69.3774 69.6211 67.859C68.9455 67.2267 68.0101 67 67.0848 67H32.5Z" fill="#F0F0F0"/>
<rect x="29" y="39" width="7" height="7" rx="3.5" fill="#D0140F"/>
<rect x="47" y="39" width="7" height="7" rx="3.5" fill="#E6B215"/>
<rect x="56" y="39" width="7" height="7" rx="3.5" fill="#41D123"/>
<rect x="65" y="39" width="7" height="7" rx="3.5" fill="#121F68"/>
<rect x="38" y="39" width="7" height="7" rx="3.5" fill="#E64815"/>
</svg>
