<svg width="100" height="100" viewBox="0 0 100 100" fill="none" xmlns="http://www.w3.org/2000/svg">
<path fill-rule="evenodd" clip-rule="evenodd" d="M11.7605 1.66789H77.0882C82.0588 2.37798 92 6.63848 92 17.9998V84.7477C91.2899 89.0082 87.3134 97.6712 77.0882 98.2393C67.4456 98.775 33.4703 98.5109 14.9412 98.2805C12.8392 98.2544 10.6186 97.9346 9.17084 96.4104C7.41839 94.5654 6.63257 91.731 10.1449 88.2732C11.1292 87.3041 12.5094 86.878 13.8908 86.878V74.0965C11.7605 73.8598 7.5 72.5343 7.5 69.1259V5.9284C7.7367 4.50823 8.92018 1.66789 11.7605 1.66789ZM25.2521 74.0965V86.878H74.6775C75.7803 86.878 76.8744 86.5342 77.6749 85.7758C82.4924 81.2112 80.1183 77.0828 77.5248 74.9231C76.8137 74.331 75.8882 74.0965 74.9629 74.0965H25.2521Z" fill="#F0F0F0"/>
<rect x="20.2815" y="34.3318" width="9.94118" height="9.94118" rx="4.97059" fill="#D0140F"/>
<rect x="45.8445" y="34.3318" width="9.94118" height="9.94118" rx="4.97059" fill="#E6B215"/>
<rect x="58.626" y="34.3318" width="9.94118" height="9.94118" rx="4.97059" fill="#41D123"/>
<rect x="71.4076" y="34.3318" width="9.94118" height="9.94118" rx="4.97059" fill="#121F68"/>
<rect x="33.063" y="34.3318" width="9.94118" height="9.94118" rx="4.97059" fill="#E64815"/>
</svg>
